<svg width="800px" height="800px" viewBox="0 0 24 24" xmlns="http://www.w3.org/2000/svg">
  <defs>
    <linearGradient id="searchGradient" x1="0" y1="0" x2="1" y2="1">
      <stop offset="0%" stop-color="#00D078" />
      <stop offset="100%" stop-color="#007DF0" />
    </linearGradient>
  </defs>

  <path
    fill="url(#searchGradient)"
    d="M15.5 14h-.79l-.28-.27A6.471 6.471 0 0 0 16 9.5C16 6.01 12.99 3 9.5 3S3 6.01 3 9.5 6.01 16 9.5 16c1.61 0 3.09-.59 4.23-1.57l.27.28v.79l5 4.99L20.49 19l-4.99-5zM9.5 14C7.01 14 5 11.99 5 9.5S7.01 5 9.5 5 14 7.01 14 9.5 11.99 14 9.5 14z"
  />
</svg>